<!DOCTYPE svg PUBLIC "-//W3C//DTD SVG 1.1//EN" "http://www.w3.org/Graphics/SVG/1.1/DTD/svg11.dtd">
<!-- Uploaded to: SVG Repo, www.svgrepo.com, Transformed by: SVG Repo Mixer Tools -->
<svg fill="#8FBD56" version="1.1" id="Layer_1" xmlns="http://www.w3.org/2000/svg" xmlns:xlink="http://www.w3.org/1999/xlink" viewBox="0 0 218.207 218.207" xml:space="preserve" width="800px" height="800px">
<g id="SVGRepo_bgCarrier" stroke-width="0"/>
<g id="SVGRepo_tracerCarrier" stroke-linecap="round" stroke-linejoin="round"/>
<g id="SVGRepo_iconCarrier"> <g> <g> <g> <path d="M214.31,27.276H3.897C1.743,27.276,0,29.019,0,31.172v155.862c0,2.154,1.743,3.897,3.897,3.897H214.31 c2.154,0,3.897-1.743,3.897-3.897V31.172C218.207,29.019,216.464,27.276,214.31,27.276z M210.414,183.138H7.793V35.069h202.621 V183.138z"/> <path d="M19.483,74.034h27.276c2.154,0,3.897-1.743,3.897-3.897V54.552c0-2.154-1.743-3.897-3.897-3.897H19.483 c-2.154,0-3.897,1.743-3.897,3.897v15.586C15.586,72.292,17.329,74.034,19.483,74.034z M23.379,58.448h19.483v7.793H23.379 V58.448z"/> <path d="M19.483,105.207h27.276c2.154,0,3.897-1.743,3.897-3.897V85.724c0-2.154-1.743-3.897-3.897-3.897H19.483 c-2.154,0-3.897,1.743-3.897,3.897v15.586C15.586,103.464,17.329,105.207,19.483,105.207z M23.379,89.621h19.483v7.793H23.379 V89.621z"/> <path d="M19.483,136.379h27.276c2.154,0,3.897-1.743,3.897-3.897v-15.586c0-2.154-1.743-3.897-3.897-3.897H19.483 c-2.154,0-3.897,1.743-3.897,3.897v15.586C15.586,134.636,17.329,136.379,19.483,136.379z M23.379,120.793h19.483v7.793H23.379 V120.793z"/> <path d="M19.483,167.552h27.276c2.154,0,3.897-1.743,3.897-3.897v-15.586c0-2.154-1.743-3.897-3.897-3.897H19.483 c-2.154,0-3.897,1.743-3.897,3.897v15.586C15.586,165.809,17.329,167.552,19.483,167.552z M23.379,151.966h19.483v7.793H23.379 V151.966z"/> <rect x="58.448" y="58.448" width="42.862" height="7.793"/> <rect x="58.448" y="120.793" width="89.621" height="7.793"/> <rect x="81.828" y="151.966" width="89.621" height="7.793"/> <rect x="81.828" y="136.379" width="27.276" height="7.793"/> <rect x="116.897" y="136.379" width="27.276" height="7.793"/> <rect x="81.828" y="89.621" width="42.862" height="7.793"/> <rect x="81.828" y="74.034" width="35.069" height="7.793"/> <rect x="132.483" y="89.621" width="35.069" height="7.793"/> <rect x="155.862" y="120.793" width="15.586" height="7.793"/> <rect x="124.69" y="74.034" width="70.138" height="7.793"/> <rect x="113" y="105.207" width="70.138" height="7.793"/> </g> </g> </g> </g>
</svg>