<!DOCTYPE svg PUBLIC "-//W3C//DTD SVG 1.1//EN" "http://www.w3.org/Graphics/SVG/1.1/DTD/svg11.dtd">
<!-- Uploaded to: SVG Repo, www.svgrepo.com, Transformed by: SVG Repo Mixer Tools -->
<svg width="800px" height="800px" viewBox="0 0 48 48" enable-background="new 0 0 48 48" id="Layer_4" version="1.1" xml:space="preserve" xmlns="http://www.w3.org/2000/svg" xmlns:xlink="http://www.w3.org/1999/xlink" fill="#000000">
<g id="SVGRepo_bgCarrier" stroke-width="0"/>
<g id="SVGRepo_tracerCarrier" stroke-linecap="round" stroke-linejoin="round"/>
<g id="SVGRepo_iconCarrier"> <g> <path d="M20.367,26.263l1.485-1.484l-2.693-2.694l-1.484,1.486c-0.864-0.572-1.828-0.999-2.858-1.267v-2.22h-4.781 v2.22c-1.053,0.272-2.039,0.711-2.917,1.302l-1.425-1.425L3,24.873l1.449,1.449c-0.554,0.849-0.97,1.793-1.23,2.8H1v4.776h2.218 c0.267,1.031,0.694,1.998,1.267,2.862L3,38.245l2.693,2.691l1.485-1.484c0.866,0.573,1.834,1.002,2.867,1.269v2.216h4.761v-2.216 c1.01-0.26,1.957-0.678,2.808-1.231l1.544,1.543l2.693-2.691l-1.521-1.522c0.594-0.883,1.034-1.876,1.306-2.934h2.215v-4.747 h-2.215C21.371,28.103,20.943,27.131,20.367,26.263z M12.426,35.428c-2.163,0-3.917-1.754-3.917-3.917s1.754-3.917,3.917-3.917 s3.917,1.754,3.917,3.917S14.589,35.428,12.426,35.428z" fill="#8FBD56"/> <path d="M42.264,26.271V24.5h-2.876v1.771h-4.426V24.5h-2.877v1.771h-4.734v0.797v2.39v3.142v0.13v1.902v1.154 v9.028V48h2.876h6.352h0.796h6.75H47v-3.187v-9.028v-1.154v-1.902v-0.13v-3.142v-2.39v-0.797H42.264z M44.124,35.785v9.028H30.227 v-9.028H44.124z M30.227,32.599v-3.142h1.858v1.549h2.877v-1.549h4.426v1.549h2.876v-1.549h1.86v3.142H30.227z" fill="#8FBD56"/> <polygon fill="#8FBD56" points="36.938,11.984 36.938,13 36.938,14.083 36.938,16.5 36.938,18.084 36.938,21 40.842,21 40.842,18.084 40.842,16.5 40.842,14.083 40.842,13 40.842,11.984 40.842,9.422 31.446,0.025 28.884,0.025 4.967,0.025 4.967,17.766 8.875,17.766 8.875,5.672 8.875,4.797 8.875,3.859 27.766,3.859 28.812,3.859 28.884,3.859 28.884,4.81 28.884,5.828 28.884,11.984 31.75,11.984 36.059,11.984 "/> </g> </g>
</svg>