<!DOCTYPE svg PUBLIC "-//W3C//DTD SVG 1.1//EN" "http://www.w3.org/Graphics/SVG/1.1/DTD/svg11.dtd">
<!-- Uploaded to: SVG Repo, www.svgrepo.com, Transformed by: SVG Repo Mixer Tools -->
<svg width="800px" height="800px" viewBox="0 0 48 48" xmlns="http://www.w3.org/2000/svg" fill="#8FBD56">
<g id="SVGRepo_bgCarrier" stroke-width="0"/>
<g id="SVGRepo_iconCarrier"> <g id="Layer_2" data-name="Layer 2"> <g id="invisible_box" data-name="invisible box"> <rect width="48" height="48" fill="none"/> </g> <g id="Layer_7" data-name="Layer 7"> <g> <path d="M3,30.5l-1,.6V39a2,2,0,0,0,2,2H24V28.3A24.4,24.4,0,0,0,16,27,25.6,25.6,0,0,0,3,30.5Z"/> <path d="M16,5a9,9,0,1,0,9,9A9,9,0,0,0,16,5Z"/> <path d="M44,28H43V25a6,6,0,0,0-12,0v3H30a2,2,0,0,0-2,2V41a2,2,0,0,0,2,2H44a2,2,0,0,0,2-2V30A2,2,0,0,0,44,28Zm-9-3a2,2,0,0,1,4,0v3H35Z"/> </g> </g> </g> </g>
</svg>