<!DOCTYPE svg PUBLIC "-//W3C//DTD SVG 1.1//EN" "http://www.w3.org/Graphics/SVG/1.1/DTD/svg11.dtd">
<!-- Uploaded to: SVG Repo, www.svgrepo.com, Transformed by: SVG Repo Mixer Tools -->
<svg fill="#8FBD56" version="1.1" xmlns="http://www.w3.org/2000/svg" xmlns:xlink="http://www.w3.org/1999/xlink" viewBox="0 0 128 128" xml:space="preserve" width="800px" height="800px">
<g id="SVGRepo_bgCarrier" stroke-width="0"/>
<g id="SVGRepo_iconCarrier"> <g id="_x31_"> </g> <g id="Layer_1"> <g> <rect x="48" y="64.2" width="68.9" height="5.6"/> <circle cx="51.7" cy="18.3" r="12.3"/> <path d="M60.3,73H39.6V57.6L28.9,39.3c-0.4-0.7-0.1-1.7,0.5-2.1c0.7-0.4,1.7-0.1,2.1,0.5l12.3,21.2c0.9,1.6,2.6,2.7,4.6,2.7h21.2 c3,0,5.4-2.5,5.4-5.4c0-3-2.5-5.4-5.4-5.4L51.9,51L37.8,27.2c-1-1.9-3.1-2.9-5.6-2.9c-0.3,0-1.1,0.1-1.5,0.2 c-0.3,0.1-0.8,0.2-1.1,0.3C19.2,28.2,11,44.6,11,61.5c-0.1,5.1,0,9.4,0.3,13.5c-0.4,4.9,2.5,9.7,7.3,11.5c1.3,0.4,2.5,0.7,3.8,0.7 h30.9v28.9c0,4,3.1,7,7,7c4,0,7-3.1,7-7v-36c0-1.8-0.7-3.7-2.1-4.9C63.8,73.8,62,73,60.3,73z"/> </g> <path d="M76.8,61.3h13.3l0,0h12.2c1.5,0,2.9-0.7,3.9-1.9s1.3-2.7,1-4.2l-5.4-21.8c-0.3-1.6-1.8-2.8-3.5-2.8h-3.8l2.6-12.4 c0.6-2.8-1.2-5.6-4.1-6.3h-0.1l-7.5,35.5h0.1c2.8,0.6,5.6-1.2,6.2-4.1L94,32.8h4.2c0.6,0,1.2,0.4,1.3,1.1l5.4,21.8 c0.1,0.8-0.1,1.7-0.6,2.4c-0.5,0.7-1.3,1.1-2.2,1.1H89.5c-0.9-2.6-3.3-4.4-6.2-4.4C79.8,54.6,76.8,57.5,76.8,61.3z"/> </g> </g>
</svg>