<?xml version="1.0" encoding="iso-8859-1"?>
<!-- Uploaded to: SVG Repo, www.svgrepo.com, Generator: SVG Repo Mixer Tools -->
<svg height="800px" width="800px" version="1.1" id="Layer_1" xmlns="http://www.w3.org/2000/svg" xmlns:xlink="http://www.w3.org/1999/xlink" 
	 viewBox="0 0 512 512" xml:space="preserve">
<circle style="fill:#FF5B62;" cx="256" cy="256" r="256"/>
<ellipse style="fill:#F4F6F7;" cx="149.837" cy="351.014" rx="84.046" ry="22.097"/>
<path style="fill:#D7DEE0;" d="M233.886,350.841v27.934c0,12.109-37.632,21.929-84.049,21.929s-84.049-9.816-84.049-21.929v-27.934
	c0,12.109,37.632,21.929,84.049,21.929S233.886,362.95,233.886,350.841z"/>
<ellipse style="fill:#F4F6F7;" cx="149.837" cy="305.064" rx="84.046" ry="22.097"/>
<path style="fill:#D7DEE0;" d="M233.886,304.897v27.934c0,12.109-37.632,21.929-84.049,21.929s-84.049-9.816-84.049-21.929v-27.934
	c0,12.114,37.632,21.929,84.049,21.929S233.886,317.011,233.886,304.897z"/>
<ellipse style="fill:#F4F6F7;" cx="149.837" cy="259.124" rx="84.046" ry="22.097"/>
<path style="fill:#D7DEE0;" d="M233.886,258.952v27.934c0,12.109-37.632,21.929-84.049,21.929S65.789,299,65.789,286.887v-27.934
	c0,12.114,37.632,21.929,84.049,21.929S233.886,271.067,233.886,258.952z"/>
<ellipse style="fill:#F4F6F7;" cx="149.837" cy="213.184" rx="84.046" ry="22.097"/>
<path style="fill:#D7DEE0;" d="M233.886,213.009v27.934c0,12.109-37.632,21.929-84.049,21.929s-84.049-9.816-84.049-21.929v-27.934
	c0,12.114,37.632,21.929,84.049,21.929S233.886,225.122,233.886,213.009z"/>
<g>
	<path style="fill:#C2CACC;" d="M231.09,246.53v7.047c-9.521,9.384-42.289,16.303-81.252,16.303
		c-38.968,0-71.731-6.919-81.252-16.303v-7.047c9.521,9.384,42.289,16.303,81.252,16.303S221.568,255.919,231.09,246.53z"/>
	<path style="fill:#C2CACC;" d="M231.09,292.513v7.047c-9.521,9.384-42.289,16.303-81.252,16.303
		c-38.968,0-71.731-6.915-81.252-16.303v-7.047c9.521,9.384,42.289,16.299,81.252,16.299S221.568,301.896,231.09,292.513z"/>
	<path style="fill:#C2CACC;" d="M231.09,338.452v7.047c-9.521,9.384-42.289,16.303-81.252,16.303
		c-38.968,0-71.731-6.915-81.252-16.303v-7.047c9.521,9.384,42.289,16.303,81.252,16.303S221.568,347.841,231.09,338.452z"/>
</g>
<circle style="fill:#FF5B62;" cx="201.037" cy="245.331" r="4.665"/>
<circle style="fill:#21D0C3;" cx="187.893" cy="246.848" r="4.665"/>
<circle style="fill:#FF5B62;" cx="201.037" cy="290.812" r="4.665"/>
<circle style="fill:#21D0C3;" cx="187.893" cy="292.319" r="4.665"/>
<circle style="fill:#FF5B62;" cx="201.037" cy="336.283" r="4.665"/>
<circle style="fill:#21D0C3;" cx="187.893" cy="337.79" r="4.665"/>
<circle style="fill:#FF5B62;" cx="201.037" cy="381.754" r="4.665"/>
<circle style="fill:#21D0C3;" cx="187.893" cy="383.271" r="4.665"/>
<g>
	<path style="fill:#C2CACC;" d="M87.789,247.81c-0.877-0.403-1.261-1.445-0.858-2.322c0.403-0.877,1.445-1.261,2.322-0.858
		c1.085,0.502,5.616,2.412,12.787,3.924c4.114,0.867,9.076,1.602,14.716,1.862c0.962,0.043,1.711,0.858,1.669,1.819
		c-0.043,0.962-0.858,1.711-1.819,1.669c-5.873-0.27-11.019-1.033-15.275-1.933c-7.545-1.593-12.38-3.63-13.541-4.166L87.789,247.81
		L87.789,247.81z"/>
	<path style="fill:#C2CACC;" d="M87.789,240.739c-0.877-0.403-1.261-1.441-0.858-2.317c0.403-0.876,1.445-1.261,2.322-0.858
		c1.085,0.502,5.616,2.407,12.787,3.924c4.114,0.867,9.076,1.602,14.716,1.862c0.962,0.043,1.711,0.858,1.669,1.82
		c-0.043,0.962-0.858,1.711-1.819,1.669c-5.873-0.27-11.019-1.033-15.275-1.933c-7.545-1.593-12.38-3.635-13.541-4.171
		L87.789,240.739L87.789,240.739z"/>
	<path style="fill:#C2CACC;" d="M87.789,294.285c-0.877-0.403-1.261-1.441-0.858-2.317c0.403-0.877,1.445-1.261,2.322-0.857
		c1.085,0.502,5.616,2.407,12.787,3.924c4.114,0.867,9.076,1.602,14.716,1.862c0.962,0.043,1.711,0.857,1.669,1.819
		c-0.042,0.962-0.858,1.711-1.819,1.669c-5.873-0.27-11.019-1.033-15.275-1.933c-7.545-1.593-12.38-3.635-13.541-4.171
		L87.789,294.285L87.789,294.285z"/>
	<path style="fill:#C2CACC;" d="M87.789,287.219c-0.877-0.403-1.261-1.445-0.858-2.322c0.403-0.877,1.445-1.261,2.322-0.858
		c1.085,0.502,5.616,2.412,12.787,3.924c4.114,0.867,9.076,1.602,14.716,1.862c0.962,0.043,1.711,0.857,1.669,1.819
		c-0.042,0.962-0.858,1.711-1.819,1.669c-5.873-0.27-11.019-1.033-15.275-1.929c-7.545-1.593-12.38-3.635-13.541-4.171
		L87.789,287.219L87.789,287.219z"/>
	<path style="fill:#C2CACC;" d="M87.789,339.949c-0.877-0.403-1.261-1.445-0.858-2.322c0.403-0.876,1.445-1.261,2.322-0.857
		c1.085,0.502,5.616,2.412,12.787,3.924c4.114,0.867,9.076,1.602,14.716,1.862c0.962,0.043,1.711,0.858,1.669,1.82
		c-0.043,0.962-0.858,1.711-1.819,1.669c-5.873-0.27-11.019-1.033-15.275-1.929c-7.545-1.593-12.38-3.635-13.541-4.171
		L87.789,339.949L87.789,339.949z"/>
	<path style="fill:#C2CACC;" d="M87.789,332.878c-0.877-0.403-1.261-1.445-0.858-2.322c0.403-0.877,1.445-1.261,2.322-0.857
		c1.085,0.502,5.616,2.407,12.787,3.924c4.114,0.867,9.076,1.602,14.716,1.862c0.962,0.043,1.711,0.858,1.669,1.819
		c-0.043,0.962-0.858,1.711-1.819,1.669c-5.873-0.27-11.019-1.033-15.275-1.933c-7.545-1.593-12.38-3.635-13.541-4.166
		L87.789,332.878L87.789,332.878z"/>
	<path style="fill:#C2CACC;" d="M87.789,385.793c-0.877-0.403-1.261-1.445-0.858-2.322c0.403-0.877,1.445-1.261,2.322-0.858
		c1.085,0.502,5.616,2.407,12.787,3.924c4.114,0.867,9.076,1.602,14.716,1.862c0.962,0.043,1.711,0.858,1.669,1.82
		c-0.042,0.962-0.858,1.711-1.819,1.669c-5.873-0.27-11.019-1.033-15.275-1.933c-7.545-1.593-12.38-3.635-13.541-4.166
		L87.789,385.793L87.789,385.793z"/>
	<path style="fill:#C2CACC;" d="M87.789,378.727c-0.877-0.403-1.261-1.441-0.858-2.317c0.403-0.876,1.445-1.261,2.322-0.857
		c1.085,0.502,5.616,2.407,12.787,3.924c4.114,0.867,9.076,1.602,14.716,1.862c0.962,0.043,1.711,0.858,1.669,1.82
		c-0.043,0.962-0.858,1.711-1.819,1.669c-5.873-0.27-11.019-1.033-15.275-1.933c-7.545-1.593-12.38-3.635-13.541-4.171
		L87.789,378.727L87.789,378.727z"/>
</g>
<ellipse style="fill:#F4F6F7;" cx="362.163" cy="271.23" rx="84.046" ry="22.097"/>
<path style="fill:#D7DEE0;" d="M446.213,271.062v27.934c0,12.109-37.632,21.929-84.049,21.929s-84.049-9.816-84.049-21.929v-27.934
	c0,12.114,37.632,21.929,84.049,21.929S446.213,283.176,446.213,271.062z"/>
<ellipse style="fill:#F4F6F7;" cx="362.163" cy="225.29" rx="84.046" ry="22.097"/>
<path style="fill:#D7DEE0;" d="M446.213,225.118v27.934c0,12.109-37.632,21.929-84.049,21.929s-84.049-9.82-84.049-21.929v-27.934
	c0,12.109,37.632,21.929,84.049,21.929S446.213,237.232,446.213,225.118z"/>
<ellipse style="fill:#F4F6F7;" cx="362.163" cy="179.34" rx="84.046" ry="22.097"/>
<path style="fill:#D7DEE0;" d="M446.213,179.174v27.934c0,12.109-37.632,21.929-84.049,21.929s-84.049-9.82-84.049-21.929v-27.934
	c0,12.109,37.632,21.929,84.049,21.929S446.213,191.288,446.213,179.174z"/>
<ellipse style="fill:#F4F6F7;" cx="362.163" cy="133.399" rx="84.046" ry="22.097"/>
<path style="fill:#D7DEE0;" d="M446.213,133.23v27.934c0,12.109-37.632,21.929-84.049,21.929s-84.049-9.82-84.049-21.929V133.23
	c0,12.109,37.632,21.929,84.049,21.929S446.213,145.344,446.213,133.23z"/>
<g>
	<path style="fill:#C2CACC;" d="M443.416,166.747v7.047c-9.521,9.384-42.285,16.303-81.252,16.303s-71.731-6.914-81.252-16.303
		v-7.047c9.521,9.384,42.285,16.303,81.252,16.303S433.895,176.136,443.416,166.747z"/>
	<path style="fill:#C2CACC;" d="M443.416,212.73v7.047c-9.521,9.384-42.285,16.299-81.252,16.299s-71.731-6.914-81.252-16.299
		v-7.047c9.521,9.384,42.285,16.303,81.252,16.303S433.895,222.113,443.416,212.73z"/>
	<path style="fill:#C2CACC;" d="M443.416,258.673v7.047c-9.521,9.384-42.285,16.303-81.252,16.303s-71.731-6.915-81.252-16.303
		v-7.047c9.521,9.384,42.285,16.303,81.252,16.303S433.895,268.057,443.416,258.673z"/>
</g>
<circle style="fill:#FF5B62;" cx="413.363" cy="165.557" r="4.665"/>
<circle style="fill:#21D0C3;" cx="400.218" cy="167.064" r="4.665"/>
<circle style="fill:#FF5B62;" cx="413.363" cy="211.028" r="4.665"/>
<circle style="fill:#21D0C3;" cx="400.218" cy="212.545" r="4.665"/>
<circle style="fill:#FF5B62;" cx="413.363" cy="256.499" r="4.665"/>
<circle style="fill:#21D0C3;" cx="400.218" cy="258.016" r="4.665"/>
<circle style="fill:#FF5B62;" cx="413.363" cy="301.98" r="4.665"/>
<circle style="fill:#21D0C3;" cx="400.218" cy="303.487" r="4.665"/>
<g>
	<path style="fill:#C2CACC;" d="M300.115,168.032c-0.877-0.403-1.261-1.445-0.858-2.322c0.403-0.877,1.445-1.261,2.322-0.858
		c1.085,0.502,5.616,2.412,12.787,3.924c4.114,0.867,9.076,1.602,14.716,1.862c0.962,0.043,1.711,0.858,1.669,1.82
		c-0.043,0.962-0.858,1.711-1.819,1.669c-5.873-0.27-11.019-1.033-15.275-1.929c-7.545-1.593-12.38-3.635-13.541-4.171v0.005
		H300.115z"/>
	<path style="fill:#C2CACC;" d="M300.115,160.961c-0.877-0.403-1.261-1.445-0.858-2.322c0.403-0.877,1.445-1.261,2.322-0.858
		c1.085,0.502,5.616,2.407,12.787,3.924c4.114,0.867,9.076,1.602,14.716,1.862c0.962,0.043,1.711,0.858,1.669,1.82
		c-0.043,0.962-0.858,1.711-1.819,1.669c-5.873-0.27-11.019-1.033-15.275-1.933c-7.545-1.593-12.38-3.635-13.541-4.166v0.004
		H300.115z"/>
	<path style="fill:#C2CACC;" d="M300.115,214.506c-0.877-0.403-1.261-1.445-0.858-2.322c0.403-0.877,1.445-1.261,2.322-0.858
		c1.085,0.502,5.616,2.407,12.787,3.924c4.114,0.867,9.076,1.602,14.716,1.862c0.962,0.043,1.711,0.858,1.669,1.82
		c-0.043,0.962-0.858,1.711-1.819,1.669c-5.873-0.27-11.019-1.033-15.275-1.933c-7.545-1.593-12.38-3.63-13.541-4.166v0.004H300.115
		z"/>
	<path style="fill:#C2CACC;" d="M300.115,207.44c-0.877-0.403-1.261-1.441-0.858-2.317c0.403-0.877,1.445-1.261,2.322-0.858
		c1.085,0.502,5.616,2.407,12.787,3.924c4.114,0.867,9.076,1.602,14.716,1.862c0.962,0.043,1.711,0.858,1.669,1.819
		c-0.043,0.962-0.858,1.711-1.819,1.669c-5.873-0.27-11.019-1.033-15.275-1.933c-7.545-1.593-12.38-3.635-13.541-4.171v0.005
		H300.115z"/>
	<path style="fill:#C2CACC;" d="M300.115,260.166c-0.877-0.403-1.261-1.441-0.858-2.317c0.403-0.877,1.445-1.261,2.322-0.857
		c1.085,0.502,5.616,2.407,12.787,3.924c4.114,0.867,9.076,1.602,14.716,1.862c0.962,0.043,1.711,0.858,1.669,1.819
		c-0.043,0.962-0.858,1.711-1.819,1.669c-5.873-0.27-11.019-1.033-15.275-1.933c-7.545-1.593-12.38-3.635-13.541-4.171v0.004
		H300.115z"/>
	<path style="fill:#C2CACC;" d="M300.115,253.1c-0.877-0.403-1.261-1.445-0.858-2.322c0.403-0.877,1.445-1.261,2.322-0.858
		c1.085,0.502,5.616,2.412,12.787,3.924c4.114,0.867,9.076,1.602,14.716,1.862c0.962,0.043,1.711,0.857,1.669,1.819
		c-0.043,0.962-0.858,1.711-1.819,1.669c-5.873-0.27-11.019-1.033-15.275-1.929c-7.545-1.593-12.38-3.635-13.541-4.171v0.006
		H300.115z"/>
	<path style="fill:#C2CACC;" d="M300.115,306.015c-0.877-0.403-1.261-1.445-0.858-2.322c0.403-0.877,1.445-1.261,2.322-0.857
		c1.085,0.502,5.616,2.412,12.787,3.924c4.114,0.867,9.076,1.602,14.716,1.862c0.962,0.043,1.711,0.858,1.669,1.819
		c-0.043,0.962-0.858,1.711-1.819,1.669c-5.873-0.27-11.019-1.033-15.275-1.929c-7.545-1.593-12.38-3.635-13.541-4.171v0.005
		H300.115z"/>
	<path style="fill:#C2CACC;" d="M300.115,298.949c-0.877-0.403-1.261-1.445-0.858-2.322c0.403-0.876,1.445-1.261,2.322-0.857
		c1.085,0.502,5.616,2.407,12.787,3.924c4.114,0.867,9.076,1.602,14.716,1.862c0.962,0.043,1.711,0.858,1.669,1.82
		c-0.043,0.962-0.858,1.711-1.819,1.669c-5.873-0.27-11.019-1.033-15.275-1.933c-7.545-1.593-12.38-3.635-13.541-4.166v0.003
		H300.115z"/>
</g>
<g>
	<path style="fill:#FAD24D;" d="M256.024,62.167c23.825,0,46.646,4.299,67.731,12.161l-4.957-12.678
		c-0.664-1.692,0.176-3.602,1.867-4.266c1.692-0.664,3.602,0.176,4.266,1.867l7.502,19.2c0.597,1.531-0.029,3.237-1.407,4.043v0.005
		l-19.81,11.564c-1.574,0.914-3.592,0.388-4.512-1.185c-0.914-1.574-0.388-3.593,1.185-4.512l13.498-7.877
		c-20.351-7.583-42.375-11.725-65.366-11.725c-51.721,0-98.547,20.967-132.443,54.859c-13.058,13.057-24.195,28.033-32.954,44.475
		c-2.99,4.616-8.365,1.422-6.161-2.474c9.118-17.261,20.768-32.982,34.451-46.669c35.085-35.085,83.566-56.792,137.111-56.792v0.003
		H256.024z"/>
	<path style="fill:#FAD24D;" d="M255.976,449.833c-23.825,0-46.646-4.299-67.731-12.161l4.957,12.678
		c0.664,1.692-0.176,3.602-1.867,4.266c-1.692,0.664-3.602-0.176-4.266-1.867l-7.507-19.199c-0.597-1.531,0.028-3.237,1.407-4.043
		v-0.005l19.81-11.564c1.574-0.915,3.593-0.388,4.507,1.185c0.915,1.574,0.388,3.592-1.185,4.512l-13.498,7.877
		c20.351,7.583,42.375,11.725,65.366,11.725c51.721,0,98.547-20.967,132.443-54.859c13.057-13.057,24.195-28.033,32.954-44.475
		c2.99-4.616,8.365-1.422,6.161,2.474c-9.118,17.261-20.768,32.982-34.451,46.669c-35.085,35.085-83.566,56.792-137.111,56.792
		L255.976,449.833z"/>
</g>
</svg>